<?xml version="1.0" standalone="no"?>
<!DOCTYPE svg PUBLIC "-//W3C//DTD SVG 20010904//EN"
 "http://www.w3.org/TR/2001/REC-SVG-20010904/DTD/svg10.dtd">
<svg version="1.0" xmlns="http://www.w3.org/2000/svg"
 width="280.000000pt" height="280.000000pt" viewBox="0 0 280.000000 280.000000"
 preserveAspectRatio="xMidYMid meet">
<metadata>
Created by potrace 1.15, written by Peter Selinger 2001-2017
</metadata><g><rect x="0" y="0" width="280" height="280" fill="#ffffff" rx="28" />
<g transform="translate(0.000000,280.000000) scale(0.050000,-0.050000)"
fill="#1f1f1f" stroke="none">
<path d="M480 4560 l0 -560 560 0 560 0 0 560 0 560 -560 0 -560 0 0 -560z
m960 0 l0 -400 -400 0 -400 0 0 400 0 400 400 0 400 0 0 -400z"/>
<path d="M800 4560 l0 -240 240 0 240 0 0 240 0 240 -240 0 -240 0 0 -240z"/>
<path d="M1760 5040 l0 -80 80 0 80 0 0 -80 0 -80 -80 0 -80 0 0 -240 0 -240
80 0 80 0 0 80 0 80 160 0 160 0 0 -80 0 -80 -80 0 -80 0 0 -400 0 -400 -80 0
-80 0 0 160 0 160 -80 0 -80 0 0 -240 0 -240 -80 0 -80 0 0 80 0 80 -80 0 -80
0 0 80 0 80 80 0 80 0 0 80 0 80 -80 0 -80 0 0 -80 0 -80 -80 0 -80 0 0 -80 0
-80 80 0 80 0 0 -80 0 -80 -80 0 -80 0 0 -80 0 -80 -160 0 -160 0 0 80 0 80
80 0 80 0 0 240 0 240 -320 0 -320 0 0 -160 0 -160 80 0 80 0 0 -80 0 -80 -80
0 -80 0 0 -160 0 -160 80 0 80 0 0 160 0 160 80 0 80 0 0 -80 0 -80 80 0 80 0
0 -80 0 -80 -80 0 -80 0 0 -80 0 -80 80 0 80 0 0 -80 0 -80 -80 0 -80 0 0
-160 0 -160 -80 0 -80 0 0 -80 0 -80 -80 0 -80 0 0 -80 0 -80 80 0 80 0 0 80
0 80 80 0 80 0 0 80 0 80 80 0 80 0 0 -80 0 -80 160 0 160 0 0 -240 0 -240
160 0 160 0 0 80 0 80 -80 0 -80 0 0 80 0 80 160 0 160 0 0 -80 0 -80 80 0 80
0 0 -80 0 -80 -80 0 -80 0 0 -80 0 -80 80 0 80 0 0 80 0 80 80 0 80 0 0 160 0
160 80 0 80 0 0 -80 0 -80 80 0 80 0 0 -80 0 -80 -80 0 -80 0 0 -160 0 -160
-160 0 -160 0 0 -160 0 -160 -80 0 -80 0 0 -320 0 -320 80 0 80 0 0 80 0 80
80 0 80 0 0 -80 0 -80 80 0 80 0 0 80 0 80 80 0 80 0 0 80 0 80 -240 0 -240 0
0 80 0 80 160 0 160 0 0 80 0 80 80 0 80 0 0 -80 0 -80 80 0 80 0 0 80 0 80
160 0 160 0 0 -80 0 -80 160 0 160 0 0 -80 0 -80 -80 0 -80 0 0 -80 0 -80
-240 0 -240 0 0 -80 0 -80 240 0 240 0 0 80 0 80 80 0 80 0 0 80 0 80 80 0 80
0 0 240 0 240 80 0 80 0 0 80 0 80 80 0 80 0 0 -160 0 -160 320 0 320 0 0 -80
0 -80 -80 0 -80 0 0 -80 0 -80 80 0 80 0 0 -80 0 -80 -80 0 -80 0 0 -80 0 -80
240 0 240 0 0 160 0 160 80 0 80 0 0 -160 0 -160 80 0 80 0 0 160 0 160 80 0
80 0 0 160 0 160 -80 0 -80 0 0 80 0 80 80 0 80 0 0 80 0 80 -80 0 -80 0 0 80
0 80 80 0 80 0 0 80 0 80 -160 0 -160 0 0 240 0 240 80 0 80 0 0 240 0 240 80
0 80 0 0 160 0 160 -160 0 -160 0 0 80 0 80 -160 0 -160 0 0 -80 0 -80 80 0
80 0 0 -160 0 -160 80 0 80 0 0 -160 0 -160 -80 0 -80 0 0 80 0 80 -80 0 -80
0 0 80 0 80 -80 0 -80 0 0 -160 0 -160 80 0 80 0 0 -80 0 -80 80 0 80 0 0
-160 0 -160 -160 0 -160 0 0 160 0 160 -80 0 -80 0 0 -160 0 -160 -80 0 -80 0
0 80 0 80 -160 0 -160 0 0 -160 0 -160 -80 0 -80 0 0 80 0 80 -80 0 -80 0 0
80 0 80 80 0 80 0 0 240 0 240 80 0 80 0 0 80 0 80 160 0 160 0 0 -80 0 -80
80 0 80 0 0 160 0 160 80 0 80 0 0 160 0 160 -80 0 -80 0 0 80 0 80 -160 0
-160 0 0 160 0 160 80 0 80 0 0 -80 0 -80 80 0 80 0 0 80 0 80 -80 0 -80 0 0
80 0 80 -160 0 -160 0 0 80 0 80 80 0 80 0 0 80 0 80 -80 0 -80 0 0 80 0 80
80 0 80 0 0 80 0 80 -80 0 -80 0 0 80 0 80 80 0 80 0 0 240 0 240 -400 0 -400
0 0 -160 0 -160 80 0 80 0 0 80 0 80 240 0 240 0 0 -160 0 -160 -80 0 -80 0 0
-80 0 -80 -80 0 -80 0 0 80 0 80 -80 0 -80 0 0 -80 0 -80 -80 0 -80 0 0 80 0
80 -80 0 -80 0 0 -80 0 -80 -80 0 -80 0 0 160 0 160 80 0 80 0 0 160 0 160
-80 0 -80 0 0 -80 0 -80 -80 0 -80 0 0 80 0 80 -80 0 -80 0 0 -80 0 -80 -80 0
-80 0 0 80 0 80 -80 0 -80 0 0 -80 0 -80 -80 0 -80 0 0 80 0 80 -80 0 -80 0 0
-80z m800 -320 l0 -80 -80 0 -80 0 0 -80 0 -80 -80 0 -80 0 0 160 0 160 160 0
160 0 0 -80z m160 -560 l0 -160 80 0 80 0 0 160 0 160 80 0 80 0 0 -160 0
-160 -80 0 -80 0 0 -80 0 -80 80 0 80 0 0 -160 0 -160 160 0 160 0 0 -160 0
-160 80 0 80 0 0 160 0 160 80 0 80 0 0 -80 0 -80 80 0 80 0 0 -80 0 -80 -80
0 -80 0 0 -80 0 -80 80 0 80 0 0 -80 0 -80 -80 0 -80 0 0 80 0 80 -320 0 -320
0 0 160 0 160 -160 0 -160 0 0 160 0 160 -160 0 -160 0 0 -80 0 -80 80 0 80 0
0 -80 0 -80 -80 0 -80 0 0 -80 0 -80 -80 0 -80 0 0 80 0 80 80 0 80 0 0 80 0
80 -80 0 -80 0 0 80 0 80 80 0 80 0 0 80 0 80 -80 0 -80 0 0 160 0 160 80 0
80 0 0 80 0 80 160 0 160 0 0 -160z m800 80 l0 -80 80 0 80 0 0 -80 0 -80 -80
0 -80 0 0 -160 0 -160 -80 0 -80 0 0 160 0 160 -80 0 -80 0 0 160 0 160 160 0
160 0 0 -80z m-1920 -960 l0 -80 80 0 80 0 0 -80 0 -80 80 0 80 0 0 -80 0 -80
80 0 80 0 0 80 0 80 160 0 160 0 0 -160 0 -160 80 0 80 0 0 160 0 160 80 0 80
0 0 -160 0 -160 80 0 80 0 0 80 0 80 320 0 320 0 0 -80 0 -80 -80 0 -80 0 0
-240 0 -240 -160 0 -160 0 0 160 0 160 -80 0 -80 0 0 -160 0 -160 -80 0 -80 0
0 160 0 160 -80 0 -80 0 0 -80 0 -80 -160 0 -160 0 0 -80 0 -80 80 0 80 0 0
-80 0 -80 -80 0 -80 0 0 80 0 80 -240 0 -240 0 0 80 0 80 -80 0 -80 0 0 -80 0
-80 -160 0 -160 0 0 80 0 80 -80 0 -80 0 0 80 0 80 -80 0 -80 0 0 80 0 80 80
0 80 0 0 -80 0 -80 80 0 80 0 0 80 0 80 160 0 160 0 0 80 0 80 -160 0 -160 0
0 160 0 160 80 0 80 0 0 80 0 80 80 0 80 0 0 -80z m2560 -160 l0 -80 -80 0
-80 0 0 80 0 80 80 0 80 0 0 -80z m-1440 -1200 l0 -160 240 0 240 0 0 -80 0
-80 80 0 80 0 0 -160 0 -160 -80 0 -80 0 0 -80 0 -80 -160 0 -160 0 0 80 0 80
80 0 80 0 0 80 0 80 -240 0 -240 0 0 -80 0 -80 -160 0 -160 0 0 -80 0 -80 -80
0 -80 0 0 80 0 80 80 0 80 0 0 80 0 80 80 0 80 0 0 160 0 160 80 0 80 0 0 160
0 160 80 0 80 0 0 -160z m1600 -400 l0 -240 -240 0 -240 0 0 240 0 240 240 0
240 0 0 -240z m480 0 l0 -80 80 0 80 0 0 -80 0 -80 -160 0 -160 0 0 -80 0 -80
80 0 80 0 0 -80 0 -80 80 0 80 0 0 -80 0 -80 -80 0 -80 0 0 80 0 80 -80 0 -80
0 0 -80 0 -80 -160 0 -160 0 0 80 0 80 160 0 160 0 0 80 0 80 -80 0 -80 0 0
80 0 80 80 0 80 0 0 160 0 160 80 0 80 0 0 -80z"/>
<path d="M2400 4000 l0 -160 80 0 80 0 0 160 0 160 -80 0 -80 0 0 -160z"/>
<path d="M2720 3760 l0 -80 80 0 80 0 0 80 0 80 -80 0 -80 0 0 -80z"/>
<path d="M3360 4080 l0 -80 80 0 80 0 0 80 0 80 -80 0 -80 0 0 -80z"/>
<path d="M1440 3120 l0 -80 80 0 80 0 0 -80 0 -80 80 0 80 0 0 80 0 80 -80 0
-80 0 0 80 0 80 -80 0 -80 0 0 -80z"/>
<path d="M2080 2800 l0 -80 80 0 80 0 0 80 0 80 -80 0 -80 0 0 -80z"/>
<path d="M1600 2640 l0 -80 -160 0 -160 0 0 -80 0 -80 160 0 160 0 0 80 0 80
80 0 80 0 0 -80 0 -80 240 0 240 0 0 80 0 80 -160 0 -160 0 0 80 0 80 -160 0
-160 0 0 -80z"/>
<path d="M3040 2640 l0 -80 80 0 80 0 0 80 0 80 -80 0 -80 0 0 -80z"/>
<path d="M4000 1520 l0 -80 80 0 80 0 0 80 0 80 -80 0 -80 0 0 -80z"/>
<path d="M4000 4560 l0 -560 560 0 560 0 0 560 0 560 -560 0 -560 0 0 -560z
m960 0 l0 -400 -400 0 -400 0 0 400 0 400 400 0 400 0 0 -400z"/>
<path d="M4320 4560 l0 -240 240 0 240 0 0 240 0 240 -240 0 -240 0 0 -240z"/>
<path d="M1760 4080 l0 -80 80 0 80 0 0 80 0 80 -80 0 -80 0 0 -80z"/>
<path d="M4320 3680 l0 -160 80 0 80 0 0 80 0 80 160 0 160 0 0 80 0 80 -240
0 -240 0 0 -160z"/>
<path d="M4960 3680 l0 -160 -160 0 -160 0 0 -80 0 -80 160 0 160 0 0 -80 0
-80 80 0 80 0 0 80 0 80 -80 0 -80 0 0 80 0 80 80 0 80 0 0 160 0 160 -80 0
-80 0 0 -160z"/>
<path d="M480 2800 l0 -80 80 0 80 0 0 80 0 80 -80 0 -80 0 0 -80z"/>
<path d="M3680 2320 l0 -80 160 0 160 0 0 80 0 80 -160 0 -160 0 0 -80z"/>
<path d="M800 2000 l0 -80 -80 0 -80 0 0 -80 0 -80 240 0 240 0 0 80 0 80 -80
0 -80 0 0 80 0 80 -80 0 -80 0 0 -80z"/>
<path d="M480 1040 l0 -560 560 0 560 0 0 560 0 560 -560 0 -560 0 0 -560z
m960 0 l0 -400 -400 0 -400 0 0 400 0 400 400 0 400 0 0 -400z"/>
<path d="M800 1040 l0 -240 240 0 240 0 0 240 0 240 -240 0 -240 0 0 -240z"/>
<path d="M3680 720 l0 -240 160 0 160 0 0 80 0 80 -80 0 -80 0 0 80 0 80 80 0
80 0 0 80 0 80 -160 0 -160 0 0 -240z"/>
<path d="M3360 560 l0 -80 80 0 80 0 0 80 0 80 -80 0 -80 0 0 -80z"/>
</g>
</g></svg>
